<svg width="16" height="14" viewBox="0 0 16 14" fill="none" xmlns="http://www.w3.org/2000/svg">
<path d="M2.59949 10.6852C2.69604 10.5774 2.82879 10.5145 2.96958 10.5145H15.7377C15.971 10.5145 16.0877 10.8289 15.9228 11.0131L13.4005 13.8293C13.304 13.9371 13.1712 13.9999 13.0304 13.9999H0.262288C0.02897 13.9999 -0.087689 13.6855 0.0772427 13.5014L2.59949 10.6852Z" fill="white"/>
<path d="M2.59949 0.170677C2.70006 0.0628811 2.83281 0 2.96958 0H15.7377C15.971 0 16.0877 0.314406 15.9228 0.498557L13.4005 3.31473C13.304 3.42253 13.1712 3.48541 13.0304 3.48541H0.262288C0.02897 3.48541 -0.087689 3.171 0.0772427 2.98685L2.59949 0.170677Z" fill="white"/>
<path d="M13.4005 5.39419C13.304 5.28639 13.1712 5.22351 13.0304 5.22351H0.262288C0.02897 5.22351 -0.087689 5.53792 0.0772427 5.72207L2.59949 8.53824C2.69604 8.64604 2.82879 8.70892 2.96958 8.70892H15.7377C15.971 8.70892 16.0877 8.39451 15.9228 8.21036L13.4005 5.39419Z" fill="white"/>
</svg>
