<svg width="16" height="16" viewBox="0 0 16 16" fill="none" xmlns="http://www.w3.org/2000/svg">
<rect width="16" height="16" rx="3" fill="#469B45"/>
<path d="M5.3052 7.10962H3.83821C3.70421 7.10994 3.57582 7.16135 3.4812 7.25258C3.38658 7.34382 3.33346 7.46742 3.3335 7.59626V12.18C3.33346 12.3089 3.38658 12.4325 3.4812 12.5237C3.57582 12.6149 3.70421 12.6663 3.83821 12.6667H5.3052C5.43934 12.6664 5.56789 12.615 5.66274 12.5238C5.75759 12.4326 5.811 12.309 5.8113 12.18V7.59626C5.811 7.46728 5.75759 7.34367 5.66274 7.25246C5.56789 7.16126 5.43934 7.1099 5.3052 7.10962Z" fill="white"/>
<path d="M12.449 8.70558C12.449 8.48562 12.3582 8.27466 12.1966 8.11894C12.1829 8.10459 12.168 8.09122 12.1523 8.07895C12.3312 8.00604 12.4784 7.87593 12.5691 7.71065C12.6597 7.54536 12.6882 7.35504 12.6497 7.17188C12.6113 6.98872 12.5082 6.82396 12.3579 6.70548C12.2076 6.58701 12.0194 6.52208 11.825 6.52169H8.81617C8.83281 6.4937 8.84807 6.46836 8.86193 6.44303C8.94852 6.30863 9.01745 6.16443 9.06714 6.01372C9.13347 5.80481 9.17396 5.58911 9.18778 5.37109C9.20698 5.05609 9.16044 4.74058 9.0509 4.44315C8.94136 4.14571 8.77104 3.87235 8.54995 3.63918C8.46666 3.5482 8.36518 3.47429 8.25155 3.42183C8.13792 3.36938 8.01447 3.33946 7.88856 3.33386C7.71656 3.32751 7.54841 3.38387 7.4178 3.49167C7.28718 3.59946 7.20374 3.75072 7.18418 3.91516C7.18303 3.92132 7.18256 3.92758 7.18279 3.93383V5.10177L6.37858 7.06167C6.31272 7.22106 6.21363 7.3658 6.0874 7.48698V12.0041C6.28592 12.0566 6.48789 12.0963 6.69195 12.1227C6.76779 12.1325 6.84422 12.1374 6.92073 12.1374H10.9986C11.2002 12.1372 11.3935 12.0605 11.5366 11.9241C11.6071 11.8563 11.6629 11.7759 11.701 11.6873C11.7391 11.5988 11.7586 11.5039 11.7585 11.4081C11.759 11.2313 11.6919 11.0605 11.5699 10.9281C11.7305 10.8957 11.8783 10.8202 11.9963 10.7105C12.1143 10.6008 12.1976 10.4613 12.2368 10.308C12.2759 10.1548 12.2692 9.99401 12.2174 9.84425C12.1657 9.69449 12.071 9.56182 11.9443 9.46154C12.0948 9.39513 12.2223 9.28861 12.3118 9.15463C12.4012 9.02064 12.4488 8.8648 12.449 8.70558Z" fill="white"/>
</svg>
